<svg width="73" height="46" viewBox="0 0 73 46" fill="none" xmlns="http://www.w3.org/2000/svg">
<path d="M63.3331 34.1171C63.0196 34.1171 62.7844 33.9669 62.6015 33.6163C62.4448 33.3159 62.3403 32.8151 62.3403 32.2142V13.7361C62.3403 13.1352 62.4186 12.6344 62.6015 12.3339C62.7844 12.0335 63.0196 11.8833 63.3331 11.8833H65.0836C65.4755 11.8833 65.8151 11.9333 66.1025 11.9834C66.3899 12.0836 66.6512 12.2338 66.8341 12.5342C67.0431 12.8347 67.1737 13.2353 67.2782 13.8362C67.3827 14.3871 67.435 15.1883 67.435 16.1397V29.8606C67.435 31.1125 67.3566 32.0139 67.1737 32.6148C66.9908 33.2157 66.7296 33.6163 66.3899 33.8166C66.0503 34.0169 65.6061 34.1171 65.0836 34.067L63.3331 34.1171ZM57.7158 1.11687C57.4023 1.16695 57.141 1.31718 56.9843 1.61764C56.8275 1.91809 56.7491 2.41886 56.7491 3.01977V42.9806C56.7491 43.5815 56.8275 44.0322 57.0104 44.3827C57.1672 44.6832 57.4284 44.8835 57.742 44.8835H65.0052C66.5205 44.8835 67.8269 44.583 68.8719 43.9821C69.917 43.3812 70.7531 42.4297 71.3801 41.2279C72.0071 40.0261 72.4774 38.4236 72.7387 36.5208C73.0261 34.6179 73.1567 32.4145 73.1567 29.8606V16.1397C73.1567 13.5858 73.0261 11.3825 72.7387 9.4796C72.4513 7.5767 72.0071 6.02434 71.3801 4.82251C70.7531 3.57061 69.917 2.66924 68.8719 2.06832C67.8269 1.46741 66.5467 1.16695 65.0052 1.16695L57.7158 1.11687ZM48.2057 27.507C48.2057 28.7089 48.1796 29.8105 48.1535 30.762C48.1012 31.7134 47.9967 32.5147 47.8399 33.2157C47.6832 33.9168 47.4219 34.4176 47.0561 34.7681C46.7165 35.1186 46.2462 35.3189 45.6453 35.3189C45.0444 35.3189 44.5741 35.1186 44.2345 34.7681C43.8687 34.4176 43.6335 33.9168 43.4506 33.2157C43.2939 32.5647 43.1894 31.7134 43.1371 30.762C43.0849 29.8105 43.0587 28.7089 43.0849 27.507V18.4933C43.0849 17.2915 43.111 16.1898 43.1371 15.2384C43.1894 14.2869 43.2939 13.4857 43.4506 12.7846C43.6074 12.0836 43.8687 11.5828 44.2345 11.2323C44.5741 10.8817 45.0444 10.6814 45.6453 10.6814C46.2462 10.6814 46.7165 10.8817 47.0561 11.2323C47.4219 11.5828 47.657 12.0836 47.8399 12.7846C47.9967 13.4356 48.1012 14.2869 48.1535 15.2384C48.2057 16.1898 48.2057 17.2915 48.2057 18.4933V27.507ZM53.7968 15.1883C53.7968 14.4872 53.7707 13.6359 53.7184 12.6344C53.6662 11.6329 53.5617 10.5813 53.3788 9.42952C53.1959 8.27777 52.9346 7.1761 52.595 6.07442C52.2292 4.97274 51.7589 3.97122 51.158 3.06985C50.5571 2.16847 49.7994 1.41733 48.885 0.866493C47.9706 0.315655 46.8732 0.065274 45.593 0.0151978C44.3128 0.0151978 43.2155 0.315655 42.3011 0.866493C41.3866 1.41733 40.629 2.16847 40.028 3.06985C39.4271 3.97122 38.9569 4.97274 38.5911 6.07442C38.2253 7.1761 37.964 8.32785 37.8073 9.42952C37.6244 10.5813 37.5199 11.6329 37.4676 12.6344C37.4154 13.6359 37.3892 14.4872 37.3892 15.1883V30.8121C37.3892 31.5131 37.4154 32.3644 37.4676 33.3659C37.5199 34.3675 37.6244 35.4191 37.8073 36.5708C37.964 37.7226 38.2514 38.8243 38.5911 39.9259C38.9569 41.0276 39.4271 42.0291 40.028 42.9806C40.629 43.882 41.3866 44.6331 42.3011 45.1339C43.2155 45.6847 44.3128 45.9852 45.593 45.9852C46.8732 45.9852 47.9706 45.6847 48.885 45.1339C49.7994 44.583 50.5571 43.882 51.158 42.9806C51.7589 42.0792 52.2292 41.0777 52.595 39.9259C52.9608 38.8243 53.222 37.6725 53.3788 36.5708C53.5356 35.4191 53.6662 34.3675 53.7184 33.3659C53.7707 32.3644 53.7968 31.5131 53.7968 30.8121V15.1883ZM29.2116 27.507C29.2116 28.7089 29.1855 29.8105 29.1593 30.762C29.1071 31.7134 29.0026 32.5147 28.8458 33.2157C28.6891 33.9168 28.4278 34.4176 28.062 34.7681C27.7224 35.1186 27.2521 35.3189 26.6512 35.3189C26.0503 35.3189 25.58 35.1186 25.2403 34.7681C24.8746 34.4176 24.6394 33.9168 24.4565 33.2157C24.2998 32.5647 24.1953 31.7134 24.143 30.762C24.0908 29.8105 24.0646 28.7089 24.0908 27.507V18.4933C24.0908 17.2915 24.1169 16.1898 24.143 15.2384C24.1953 14.2869 24.2998 13.4857 24.4565 12.7846C24.6133 12.0836 24.8746 11.5828 25.2403 11.2323C25.58 10.8817 26.0503 10.6814 26.6512 10.6814C27.2521 10.6814 27.7224 10.8817 28.062 11.2323C28.4278 11.5828 28.6629 12.0836 28.8458 12.7846C29.0026 13.4356 29.1071 14.2869 29.1593 15.2384C29.2116 16.1898 29.2116 17.2915 29.2116 18.4933V27.507ZM34.8288 15.1883C34.8288 14.4872 34.8027 13.6359 34.7505 12.6344C34.6982 11.6329 34.5937 10.5813 34.4108 9.42952C34.2279 8.27777 33.9667 7.1761 33.627 6.07442C33.2612 4.97274 32.791 3.97122 32.19 3.06985C31.5891 2.16847 30.8314 1.41733 29.917 0.866493C29.0026 0.315655 27.9053 0.065274 26.625 0.0151978C25.3448 0.0151978 24.2475 0.315655 23.3331 0.866493C22.4186 1.41733 21.661 2.16847 21.0601 3.06985C20.4591 3.97122 19.9889 4.97274 19.6231 6.07442C19.2573 7.1761 18.996 8.32785 18.8393 9.42952C18.6564 10.5813 18.5519 11.6329 18.4996 12.6344C18.4474 13.6359 18.4213 14.4872 18.4213 15.1883V30.8121C18.4213 31.5131 18.4474 32.3644 18.4996 33.3659C18.5519 34.3675 18.6564 35.4191 18.8393 36.5708C18.996 37.7226 19.2834 38.8243 19.6231 39.9259C19.9889 41.0276 20.4591 42.0291 21.0601 42.9806C21.661 43.882 22.4186 44.6331 23.3331 45.1339C24.2475 45.6847 25.3448 45.9852 26.625 45.9852C27.9053 45.9852 29.0026 45.6847 29.917 45.1339C30.8314 44.583 31.5891 43.882 32.19 42.9806C32.791 42.0792 33.2612 41.0777 33.627 39.9259C33.9928 38.8243 34.254 37.6725 34.4108 36.5708C34.5676 35.4191 34.6982 34.3675 34.7505 33.3659C34.8027 32.3644 34.8288 31.5131 34.8288 30.8121V15.1883ZM15.5473 1.11687C16.2005 1.11687 16.514 1.76786 16.514 2.96969V9.98036C16.514 10.5813 16.4356 11.032 16.2789 11.3825C16.1221 11.733 15.8608 11.8833 15.5473 11.8833H7.03001C6.71649 11.8833 6.48135 12.0335 6.29846 12.3339C6.11557 12.6344 6.03719 13.1352 6.03719 13.7361V43.0307C6.03719 43.6316 5.95881 44.0823 5.80205 44.4328C5.64529 44.7332 5.38402 44.9336 5.0705 44.9336H1.22988C0.916355 44.9336 0.681215 44.7833 0.498328 44.4328C0.341567 44.0823 0.237061 43.6316 0.237061 43.0307V3.01977C0.237061 2.41886 0.315441 1.91809 0.498328 1.61764C0.681215 1.31718 0.916355 1.16695 1.22988 1.16695L15.5473 1.11687Z" fill="#B59571"/>
</svg>
